<svg id="Capa_1" data-name="Capa 1" xmlns="http://www.w3.org/2000/svg" viewBox="0 0 1000 1000"><defs><style>.cls-1{fill:#fff;}</style></defs><path class="cls-1" d="M288.71,535.05s-11.47,15.81-8.15,20.56,15.28,23,16.55,28.61c2,8.66,9.65,8,14.58,2.2,0,0,6.12-6.39,7.45-6.92,0,0,5.91-3.46,1.7-5.9S297.38,563.32,288.71,535.05Z"/><path class="cls-1" d="M290.46,610.37S299.82,598.6,293,587s-16.36-28.94-16.36-28.94l-89.1,168.4a1.11,1.11,0,0,1-.17.32h0c-3.89,9.6-17,8.27-17,8.27C125,735.5,108.66,766,108.66,766l.21-2.29c21.29-39.92,72.51-32.58,72.51-32.58a20.58,20.58,0,0,0-3.69-2.19,74.89,74.89,0,0,0-80.06,39.42L83.56,795.67a74.89,74.89,0,0,0,133.2,68.5l14.06-27.34a74.41,74.41,0,0,0,4.71-57.13,75.37,75.37,0,0,0-7.59-16.52h0l-.12-.19,0-.06c-1.12-1.79-8.55-13.46-15.52-18.75-7.56-5.74-1.71-12.35-1.71-12.35Zm-75.72,222-11,21.37A58.54,58.54,0,0,1,99.64,800.16l11-21.37a58.54,58.54,0,1,1,104.11,53.54Zm-10.67-88.1c12.69,10,16.17,24.83,16.17,24.83-2.44-8.22-25.83-24.58-25.83-24.58-4.87-2.57-1.2-7.32-1.2-7.32l48.67-77.82-2.71,8.53s-34.65,59.36-37.48,66.59S204.07,744.23,204.07,744.23Z"/><path class="cls-1" d="M633,891.21s-40.12-4.79-42.95-39.89h0c.53-.6,1.06-1.2,1.58-1.82h0s4.76,35.27,37.29,35.86c0,0-37.52-10.41-30.09-40.47l5-18.17v0a65.74,65.74,0,0,0-76.24-83.39c-5.89-.53-13.67,3.06-13.67,3.06S171.24,154.51,169.26,151.55s-2.8-2.86-2.8-2.86c-7.27.49-4.1,7.09-4.1,7.09L297.51,533.2c5.13,28.38,24.18,32,24.18,32C358,574.9,379,602.89,379,602.89L495.76,760l0,0A65.68,65.68,0,0,0,541,873.4a66.24,66.24,0,0,0,8.26-.54l-.05,0A61.3,61.3,0,0,0,571,867c10.26-5.29,13.18-.9,15.69,4.88s15.6,25.41,44.23,29.86c0,0,6.66,1.32,7.32-3.56S633,891.21,633,891.21ZM332.84,533.88a17,17,0,1,1,17-17A17,17,0,0,1,332.84,533.88ZM344.4,481.1c-5.19-6.32-13.11-1.51-13.11-1.51-35.67,13.48-51.33-18-51.33-18L232.07,331.41v-4.27s39.4,82.87,52.6,122.3,42.07,23.89,48,22.59c5.46-1.19,3.43-5.22,3.05-5.89l-48-82.84c.05.05,5-.46,5.93,1C312.56,415.06,508,747.34,509,748.87c1.81,2.94,5.07,1.25,5.33,1.21,26.78-10.39,43.86.44,43.67.83-23.37-6-42.38,4.18-46.27,6.87-5.36,3.71-8.58-2.58-9.82-4.71ZM541,859a51.32,51.32,0,1,1,51.32-51.32A51.31,51.31,0,0,1,541,859Z"/><path class="cls-1" d="M745.12,542.61s43.53-40.76,85.08-12.79c0,0-23.84-54.6-97.79-27.62,0,0,32.61-52.41-11.46-128.3,0,0,7.19,64.64-33.18,80,0,0,52.23-74.77-5.13-158.39,0,0-45.42-74.8-134.12-26.08,0,0-41.87,36.15-49.88,26.54,0,0,16.33-6.67,27.09-20.95,0,0,19.78-28,59.81-26a36.9,36.9,0,0,0-20.57-8.8s44.32-14.1,89.58,18.54c0,0-42.41-62.06-125.21-39.16,0,0-6.44,1.7-1.43-11.61,0,0-13.69,5.32-20,4.89s-5.91-2.62-1.81-5.51,40.21-32.8,40.79-82.87c0,0-47,37.45-67.54,23.48,0,0,16.49-24.32,9.8-51.65,0,0-21.44,40.2-82.38,29.72a41.21,41.21,0,0,1-17.5-11.6s-49.17-37.34-131-8.07c0,0-38.56,15.37-57.91,58a11.86,11.86,0,0,0,1.45,10.64l78,134.83a11.39,11.39,0,0,0,6.46,5.31c4.54,1.39,32.43,12.79,68.28,8.73,0,0-40.42-19-52.55-48.12,0,0,57.67,38.94,90.07,26.9,0,0-42.81-17.78-51.25-39.42,0,0,26.33,17.14,91.18,10.81,0,0-68.22-15.87-91.74-84.13,0,0,68.7,60.79,125,27.1,5.41,20.93,12.38,50.8,12.38,50.8s5,19.57,0,27.1S476,312,479,315.7s21.18,42.83,27.77,49.38,8,16.58,2.34,20.79-9.37,6.14-23.23,10.5c0,0-4.47,1.82-3.52,7.43s5.56,14.22-1.19,19.55-6.25,5.56-5,8.44,5.51,9.51-6.19,19.73c0,0-5.94,5.23-3.07,9.94s7.69-2,14.13-4.49,17.22-9.67,17.22-9.67S493.92,457,476.71,464A12.57,12.57,0,0,0,469,478.9s3.22,7.14-1.49,12-12.62,16.86-60.66,14.67c0,0-15.56-1.22-8.51,9.16l8.09,14.13s2.14,3.81,7.48,1.22c0,0,191.83-73.36,123.67-184.89,0,0-2.14,21.44-10.66,25.08,0,0,2.44-28.44-12.32-45.63,0,0,5.33,24.88-6,29.4,0,0,1.4-30.37-13.93-44.95,0,0,27.45-2.54,37.65-9.22,0,0,54.69-42.42,98-21.93,0,0,65.23,27.35,24,110.09,0,0-2-83.19-74.22-78.92,0,0,69.09-18,71.71,47,0,0,28.83-37.4-15.42-67.9S553,319.83,513.47,313.78c0,0,22.82,37.24,78.23,26.22,0,0,33.49-14.57,44.37,21.16,0,0,10.56,24.66,11.43,39.81,0,0-10,29.07,5.53,52.15,0,0,11,18.4,36.28,43.93,0,0,10.94,10.89-1.33,18.28l-13.2,8s-7.6,3.73-3.47,12,9.2,16.18,3.47,21.41-1.7,6.46-.15,9.06,5,7.77-2.35,14.53-11.22,11.49-8.88,22.13,6.33,30.37-21.91,32.3-60.37-11.68-91.34,38.46c0,0,38.88,21.15,106.3-11.67s91-147.67,200.46-77.41C856.91,584.15,827,514.36,745.12,542.61ZM408.86,200.08s30.43,3.2,43.64-4.84a5.43,5.43,0,0,1,6.88,2c.75,1.13,2.49,7.12,4.62,15.16C451.34,211.55,425.58,208.75,408.86,200.08Zm83.78,71s-11.36,1.58-5.44-6.34c0,0,14.06-19,46.88-19.85,0,0-11.74,3.54-21.62,16.69C512.46,261.61,505.92,269.42,492.64,271.11Z"/><path class="cls-1" d="M416.57,546.4,427,564.48s1.87-12,22.26-38.8C449.29,525.68,422,533.25,416.57,546.4Z"/><path class="cls-1" d="M478.67,514.81S452.53,517,439,570.87a22.75,22.75,0,0,0,.66,15.41c3.4,7.76,78.12,135.1,78.12,135.1s3.06,6,8.46,5.23,40.79-10.77,78,29.42c0,0,28.25,33.2,16.48,75.62,0,0,38.32-25.73,16.68-84.53,0,0-14.65-36.29-43.47-39.2,0,0,29.81-18.62,31.14-26.14,0,0-82.09,32.35-125.56-25.1S460.15,553,478.67,514.81Z"/><path class="cls-1" d="M616.69,704.09s25.1,22,61.1,1.31,68.54-53.4,99-54.07S860,655.23,895,735.53c0,0,.8-77.12-69.35-108.55,0,0,56.21-4.18,99.1,113.39,0,0,5-170.75-142.74-150.6,0,0-42.9,5-99.67,68.18C682.34,658,656.43,692.88,616.69,704.09Z"/><path class="cls-1" d="M567.87,450.7s7.79-11.69,21.75-9.86c0,0,23.26,4.85,36.08-6.49,0,0,3.75,12.88-11.8,17.66,0,0-8.27,2.15-19.48-2.51S567.87,450.7,567.87,450.7Z"/><path class="cls-1" d="M563.07,411.89s19.16-14.3,36.17-12.14,31.34,7.4,31.67,8.41,4.57,1.46,5.44-1.74-2.09-4.75-11.62-7.67S581.35,384,563.07,411.89Z"/></svg>