<svg id="Capa_1" data-name="Capa 1" xmlns="http://www.w3.org/2000/svg" viewBox="0 0 1390.98 536.17"><defs><style>.cls-1{font-size:221.75px;}.cls-1,.cls-2,.cls-3{fill:#fff;}.cls-1,.cls-2{font-family:Lobster1.4, "Lobster 1.4";}.cls-2{font-size:111.13px;}</style></defs><text class="cls-1" transform="translate(524.91 302.78)">VIRGHY</text><text class="cls-2" transform="translate(524.91 436.78)">Peluqueria Unisex</text><path class="cls-3" d="M189.59,285.61s-5.74,7.91-4.08,10.28,7.64,11.53,8.28,14.31c1,4.32,4.82,4,7.29,1.1a32.09,32.09,0,0,1,3.72-3.46s2.95-1.73.85-3S193.92,299.75,189.59,285.61Z"/><path class="cls-3" d="M190.46,323.27s4.68-5.89,1.28-11.67-8.18-14.47-8.18-14.47L139,381.33a.44.44,0,0,1-.08.17h0c-2,4.79-8.51,4.13-8.51,4.13-22.72.21-30.86,15.44-30.86,15.44l.11-1.14c10.64-20,36.25-16.29,36.25-16.29a10.45,10.45,0,0,0-1.85-1.1,37.44,37.44,0,0,0-40,19.71l-7,13.68a37.45,37.45,0,0,0,66.6,34.25l7-13.68a37.5,37.5,0,0,0-1.44-36.82h0l-.06-.1,0,0c-.55-.89-4.27-6.73-7.76-9.37a4.07,4.07,0,0,1-.85-6.18Zm-37.86,111-5.5,10.69a29.27,29.27,0,0,1-52-26.77l5.5-10.69a29.27,29.27,0,0,1,52.05,26.77Zm-5.34-44.05a24.63,24.63,0,0,1,8.09,12.42c-1.22-4.11-12.91-12.29-12.91-12.29-2.44-1.29-.61-3.66-.61-3.66l24.34-38.91L164.81,352s-17.32,29.68-18.73,33.3S147.26,390.2,147.26,390.2Z"/><path class="cls-3" d="M361.74,463.7s-20.05-2.4-21.47-19.95h0c.27-.3.53-.6.79-.91h0s2.38,17.64,18.65,17.94c0,0-18.76-5.21-15.05-20.24l2.51-9.09v0a32.86,32.86,0,0,0-31.44-42.38,33.41,33.41,0,0,0-6.68.68c-2.95-.26-6.84,1.53-6.84,1.53S130.85,95.34,129.86,93.85s-1.4-1.42-1.4-1.42c-3.63.24-2.05,3.54-2.05,3.54L194,284.68c2.56,14.19,12.08,16,12.08,16,18.15,4.85,28.68,18.85,28.68,18.85l58.36,78.57h0a32.84,32.84,0,0,0,22.58,56.7,33.18,33.18,0,0,0,4.13-.27h0a30.6,30.6,0,0,0,10.92-2.95c5.13-2.64,6.59-.45,7.84,2.44s7.8,12.71,22.12,14.93c0,0,3.33.66,3.66-1.78S361.74,463.7,361.74,463.7ZM211.65,285a8.51,8.51,0,1,1,8.5-8.51A8.5,8.5,0,0,1,211.65,285Zm5.78-26.39c-2.59-3.16-6.55-.76-6.55-.76-17.84,6.74-25.67-9-25.67-9l-23.94-65.11v-2.14s19.7,41.44,26.3,61.16,21,11.94,24,11.29c2.72-.6,1.71-2.61,1.52-2.94l-24-41.43s2.52-.22,3,.5c9.43,15.38,107.16,181.53,107.63,182.29.91,1.47,2.54.63,2.67.61,13.39-5.2,21.93.22,21.83.41A30.35,30.35,0,0,0,301.08,397c-2.68,1.85-4.29-1.29-4.91-2.36Zm98.28,189a25.66,25.66,0,1,1,25.66-25.66A25.66,25.66,0,0,1,315.71,447.6Z"/><path class="cls-3" d="M417.8,289.39S439.56,269,460.34,283c0,0-11.93-27.31-48.9-13.82,0,0,16.3-26.2-5.73-64.15,0,0,3.6,32.32-16.59,40,0,0,26.12-37.39-2.56-79.2,0,0-22.72-37.4-67.07-13,0,0-20.93,18.08-24.94,13.27a36.09,36.09,0,0,0,13.55-10.47s9.89-14,29.91-13a18.5,18.5,0,0,0-10.29-4.4s22.16-7,44.79,9.27c0,0-21.2-31-62.61-19.58,0,0-3.22.85-.71-5.8,0,0-6.85,2.66-10,2.44s-2.95-1.31-.91-2.75,20.11-16.4,20.4-41.44c0,0-23.48,18.73-33.77,11.74,0,0,8.24-12.16,4.9-25.83,0,0-10.72,20.11-41.19,14.87a20.69,20.69,0,0,1-8.76-5.81s-24.58-18.67-65.51-4a59.31,59.31,0,0,0-29,29,5.9,5.9,0,0,0,.72,5.32l39,67.42a5.69,5.69,0,0,0,3.23,2.66A76.16,76.16,0,0,0,222.48,180s-20.21-9.5-26.28-24.06c0,0,28.84,19.47,45,13.45,0,0-21.41-8.89-25.63-19.71,0,0,13.17,8.57,45.59,5.41,0,0-34.11-7.94-45.87-42.07,0,0,34.35,30.4,62.51,13.55C280.54,137.08,284,152,284,152s2.5,9.79,0,13.55-.81,8.5.69,10.37,10.59,21.42,13.89,24.69,4,8.3,1.17,10.4-4.69,3.07-11.62,5.25A3.26,3.26,0,0,0,286.4,220c.48,2.8,2.78,7.11-.59,9.78s-3.13,2.78-2.51,4.22,2.76,4.76-3.09,9.86c0,0-3,2.62-1.54,5s3.85-1,7.07-2.25a63.34,63.34,0,0,0,8.61-4.84s-2.16,4.87-10.76,8.36a6.28,6.28,0,0,0-3.88,7.45s1.61,3.56-.74,6-6.31,8.44-30.33,7.34c0,0-7.78-.61-4.26,4.58l4.05,7.06s1.07,1.91,3.74.62c0,0,95.91-36.69,61.83-92.45,0,0-1.07,10.72-5.33,12.54,0,0,1.22-14.22-6.15-22.82,0,0,2.66,12.45-3,14.7,0,0,.7-15.18-7-22.47,0,0,13.72-1.27,18.82-4.61,0,0,27.35-21.21,49-11,0,0,32.62,13.68,12,55.05,0,0-1-41.6-37.12-39.46,0,0,34.55-9,35.86,23.48,0,0,14.41-18.7-7.71-34S321.75,178,302,175c0,0,11.41,18.62,39.12,13.11,0,0,16.74-7.28,22.18,10.58,0,0,5.28,12.34,5.72,19.91,0,0-5,14.54,2.76,26.07,0,0,5.52,9.2,18.14,22,0,0,5.47,5.45-.67,9.14l-6.6,4a4.23,4.23,0,0,0-1.73,6c2.06,4.13,4.6,8.1,1.73,10.71s-.85,3.23-.07,4.53,2.48,3.89-1.18,7.27-5.61,5.74-4.43,11.06,3.16,15.19-11,16.15-30.18-5.84-45.67,19.23c0,0,19.44,10.58,53.15-5.83S419,275,473.69,310.16C473.69,310.16,458.75,275.26,417.8,289.39ZM249.66,118.12s15.22,1.6,21.82-2.42a2.71,2.71,0,0,1,3.44,1,52.08,52.08,0,0,1,2.31,7.58C270.9,123.86,258,122.46,249.66,118.12Zm41.89,35.52s-5.67.79-2.72-3.17c0,0,7-9.49,23.45-9.93a23.63,23.63,0,0,0-10.82,8.35A16.11,16.11,0,0,1,291.55,153.64Z"/><path class="cls-3" d="M253.52,291.28l5.23,9s.93-6,11.13-19.39C269.88,280.93,256.22,284.71,253.52,291.28Z"/><path class="cls-3" d="M284.57,275.49s-13.07,1.09-19.85,28a11.4,11.4,0,0,0,.33,7.7c1.7,3.89,39.06,67.56,39.06,67.56s1.54,3,4.23,2.61,20.4-5.38,39,14.71c0,0,14.13,16.6,8.24,37.81,0,0,19.16-12.86,8.34-42.26,0,0-7.33-18.15-21.74-19.6,0,0,14.91-9.31,15.57-13.07,0,0-41,16.17-62.78-12.55S275.31,294.61,284.57,275.49Z"/><path class="cls-3" d="M353.58,370.13s12.55,11,30.55.66,34.27-26.71,49.5-27,41.62,1.95,59.11,42.1c0,0,.4-38.56-34.68-54.27,0,0,28.11-2.09,49.55,56.69,0,0,2.48-85.37-71.37-75.3,0,0-21.45,2.5-49.83,34.09C386.41,347.06,373.45,364.53,353.58,370.13Z"/><path class="cls-3" d="M329.17,243.43s3.89-5.84,10.88-4.93c0,0,11.62,2.43,18-3.24,0,0,1.87,6.44-5.91,8.83,0,0-4.13,1.08-9.73-1.25S329.17,243.43,329.17,243.43Z"/><path class="cls-3" d="M326.77,224s9.58-7.15,18.08-6.07,15.68,3.7,15.84,4.21,2.28.72,2.72-.88-1-2.37-5.81-3.83S335.91,210.1,326.77,224Z"/></svg>